<svg id="Layer_1" data-name="Layer 1" xmlns="http://www.w3.org/2000/svg" viewBox="0 0 326.42 222.52"><defs><style>.cls-1{fill:#fcbcd8;}.cls-2{fill:#a1f2c7;}.cls-2,.cls-3,.cls-4,.cls-5,.cls-6,.cls-7,.cls-8{fill-rule:evenodd;}.cls-3{fill:#82c4e3;}.cls-4{fill:#d199d1;}.cls-5{fill:#ffa6b3;}.cls-6{fill:#ffd663;}.cls-7{fill:#cc9a9a;}.cls-8{fill:#99ce9b;}.cls-9{fill:#772e1f;}.cls-10{fill:#e0708d;}.cls-11{fill:#d43b6b;}.cls-12{fill:#ebb1c0;}.cls-13{fill:#cf6e8f;}.cls-14{fill:#dc3b4d;}.cls-15{fill:#984d97;}.cls-16{fill:#f7e567;}.cls-17{fill:#baf2c9;}</style></defs><path class="cls-1" d="M101.79,160.25c-.34,2.65-1.31,5.72-3,6.85-3.38,2.25-7,1-9.13-2.11-3.28-4.8-1.65-15.89,30.88-37.55,8.23-5.49,17.25-11.19,25.35-16,4.53-23,8.57-45.44,14.26-75.32,2.46-13.47,4.31-22.89,9-26s8.33-2.21,11.18,2c2.14,3.13,1.46,8.43,1.08,16-1.08,20.44,1.08,40.23,4.11,62.18,0,0,9.66-4.31,12.33-5.79,6.35-3.32,10.44-4.52,12.86-1,1.71,2.5,2,5.63-.73,7.46a44.5,44.5,0,0,1-8.6,3.61,98.9,98.9,0,0,0-14.17,5.8c3.78,19,10.4,39.47,16.68,48.64,1.85,2.71,4.9,4.92,7.18,8.26,1.28,1.87.88,5.78-2.28,7.89-3.59,2.39-10,2.08-14.38-4.38-6.55-9.58-14.25-32.06-18.83-54.49-8.17,4.23-14.3,7.41-19.52,10.57-9.23,40.43-20.78,83.31-43.59,98.5C94.9,227,80.74,222.49,76,215.62c-3-4.38-2.39-9.33,2-12.29,5.07-3.37,7.92-.11,10.06,3,2.85,4.16,8.3,6.29,16.33,1,20.27-13.51,29.25-48.91,38.24-82.5-5.35,3-12,7.11-17.32,10.63C107,147.66,102.19,156.34,101.79,160.25Zm56.78-55.42c5-3,10.14-5.84,15.22-8.31a495.25,495.25,0,0,1-4.42-54.08C167.33,55.63,163.17,82.36,158.57,104.83Z" transform="translate(-1.83)"/><path class="cls-2" d="M300.88,186a1.83,1.83,0,0,0-1.33-1.66,1.66,1.66,0,0,0-1.79,1.5,1.57,1.57,0,0,0,1.27,1.81c.91.16,2.06-.65,1.85-1.65Z" transform="translate(-1.83)"/><path class="cls-2" d="M131.37,108.53a1.8,1.8,0,0,0-1.66,1.93,1.82,1.82,0,0,0,1.95,1.63,1.79,1.79,0,0,0,1.65-1.92,1.83,1.83,0,0,0-1.94-1.64Z" transform="translate(-1.83)"/><path class="cls-2" d="M34.89,95.63c-2.11,0-1.82,3.21.27,3.21s1.82-3.21-.27-3.21Z" transform="translate(-1.83)"/><path class="cls-2" d="M108.8,165.84a1.56,1.56,0,0,0-1.8,1.23,3.65,3.65,0,0,0,0,.81,1.52,1.52,0,0,0,3,.15,3.68,3.68,0,0,0,0-.81,1.56,1.56,0,0,0-1.26-1.38Z" transform="translate(-1.83)"/><path class="cls-2" d="M135.59,76.72a1.87,1.87,0,0,0-2-1.66,1.94,1.94,0,0,0-1.72,1.07,2.09,2.09,0,0,0,0,1.68A1.79,1.79,0,0,0,133.67,79a2.49,2.49,0,0,0,1.92-2.25Z" transform="translate(-1.83)"/><path class="cls-2" d="M206.75,8.24a2.1,2.1,0,0,0-2.85-.48,2.7,2.7,0,0,0-1.29,1.67,1.94,1.94,0,0,0,.7,1.88,2,2,0,0,0,2.82-.18,2.34,2.34,0,0,0,.53-.44,2,2,0,0,0,.09-2.45Z" transform="translate(-1.83)"/><path class="cls-2" d="M327.05,51.27a1.72,1.72,0,0,0-2.36.22l-.48.49a1.62,1.62,0,0,0,.21,2.31,1.72,1.72,0,0,0,2.35-.21l.5-.48a1.64,1.64,0,0,0-.22-2.33Z" transform="translate(-1.83)"/><path class="cls-2" d="M144.37,67.09v0a1.16,1.16,0,0,0-2.2,0,1.36,1.36,0,0,0,.85,2.18,1.39,1.39,0,0,0,1.36-2.18Z" transform="translate(-1.83)"/><path class="cls-2" d="M223.67,179.57a1.63,1.63,0,0,0-1.4,2.15,1.67,1.67,0,0,0,.38.75,1.45,1.45,0,0,0,2.24.09,2.39,2.39,0,0,0,.52-1.1,1.63,1.63,0,0,0-1.74-1.89Z" transform="translate(-1.83)"/><path class="cls-3" d="M142.13,203.05c-1.93,0-1.67,2.93.24,2.93s1.67-2.93-.24-2.93Z" transform="translate(-1.83)"/><path class="cls-4" d="M241,26.87a3,3,0,0,1,.41,2.27l-.07,0a3.91,3.91,0,0,1-1.72-.81c-.51-.45.76-2.3,1.38-1.44Zm-8.38,3c.22-.95.87-1.32,1.28-.2a2,2,0,0,1-.83,2.26,2.24,2.24,0,0,1-.45-2.06Zm15.55,0a27,27,0,0,1-5.07-.36,6.66,6.66,0,0,0,.06-1.28c-.11-1.74-1.61-4.24-3.62-2.91-2.28,1.49-2.09,3.94.29,5,.33.14.66.27,1,.39-1.11,1.92-4,2.21-6.17,1.85a3.56,3.56,0,0,0,.06-4.79c-1.49-2.1-3.68.68-3.86,2.23a3.5,3.5,0,0,0,.76,2.77A6.43,6.43,0,0,1,231,33a4.44,4.44,0,0,1-4.8-1.58c-.46-.58-1.47.15-1.06.75,1.8,2.62,5.43,2.79,7.92,1.58a8.3,8.3,0,0,0,4.86.45,6.51,6.51,0,0,0,4.66-3.07,26.88,26.88,0,0,0,5.61.38c1.11,0,1.15-1.73,0-1.7Z" transform="translate(-1.83)"/><path class="cls-4" d="M158.48,178.73c-1.61-.64-1.63-2-.52-3.12,1.47-1.46,3.06,0,3.7,1.41a4.54,4.54,0,0,1,.39,2.3,8.47,8.47,0,0,1-3.57-.59Zm7.67-9.18c-1.58,1.06-3.44.52-2.39-1.3s2.79-1.41,3.91-.09l0,0a7.81,7.81,0,0,1-1.54,1.36Zm4.11-1.05a11.24,11.24,0,0,0,2-5.93.7.7,0,0,0-1.3-.28c-.7,1.43-1.27,2.89-2,4.21-.11-.12-.22-.25-.34-.37-2.05-2-5.28-1.12-6.69,1.14-1.3,2.1-.64,4.91,2.24,4.94a6.77,6.77,0,0,0,4.71-2,7,7,0,0,1-1.54,6.72,6.91,6.91,0,0,1-3.21,2.05,7.45,7.45,0,0,0-1-3.8c-1.45-2.63-4.57-2.81-6.72-1a3.72,3.72,0,0,0,.34,6,8.65,8.65,0,0,0,4.78,1.29,17.7,17.7,0,0,1-3.41,4.78c-.92,1,.63,2.39,1.55,1.41a16.83,16.83,0,0,0,4.11-6.49,10.74,10.74,0,0,0,5.51-3.37,8.46,8.46,0,0,0,1-9.28Z" transform="translate(-1.83)"/><path class="cls-1" d="M3.37,56.31c-.3-2.91-.59-14.85-.83-17.12s-.35-23.42-.71-28.67l6.85-.17,7.09,3.26L15.88,24a4.21,4.21,0,0,1,2.19.23c3.54,2.1,8.21,5.19,8.33,8.92.06,1.51.23,3.37.23,6.93,0,4.6-.35,15.79-1.47,17.71a8.47,8.47,0,0,1-6.38,3.49,9.78,9.78,0,0,1-5.61-2.73v2.5l-5.85.58C6.26,60.22,4,57.36,3.37,56.31Zm-.3-44.8c.53,15,.71,31.87,1.3,44.05,1.71,0,2.72.06,3.78.06a5.61,5.61,0,0,0,1.06-.06,13.56,13.56,0,0,0,0-3.15,12.11,12.11,0,0,0,2.54,1.22,6.45,6.45,0,0,0,2.19.35,5.46,5.46,0,0,0,4.13-1.69c1.24-3.43,1.36-8.09,1.36-12.4V33.77a14.83,14.83,0,0,0-1.71-7.87,4.37,4.37,0,0,0-3-1,13.56,13.56,0,0,0-2.18.23,12.16,12.16,0,0,0-4,1.16C8.21,23.63,8.39,17.81,8,11.4,6.44,11.46,4.78,11.46,3.07,11.51ZM14.35,38.14c0,3.78-.3,7.4-.3,8a1.77,1.77,0,0,1-1.94,1.92,4.15,4.15,0,0,1-2.72-1.05c-.53-4.14-.12-8.91-.47-15.09a4.64,4.64,0,0,1,3.3-1.86,1.5,1.5,0,0,1,1.54,1.22A29.19,29.19,0,0,1,14.35,38.14Z" transform="translate(-1.83)"/><path class="cls-1" d="M39.86,61.79c-3.84.41-7-4.89-8-6.7a12.07,12.07,0,0,1-1.6-6,12.53,12.53,0,0,1,1.13-5.24c.64-1.23,3-3.67,9.8-5.25A27.56,27.56,0,0,0,41,35.4c-1.59-.76-4.37-1.17-6-1.86-.77-1.58-2.25-3.73-2.84-5.07-.06-.76-.12-1.58-.12-2.39,0-1.52.12-3,.18-4.31.71-.06,1.36-.06,2-.06a26.17,26.17,0,0,1,3.72.23c4.43.53,7.44.93,10.92,3.32,2,1.34,5.55,3.91,6.38,7.52.12,6,.24,11.94.24,18.58,0,3.79-.12,7.46-.3,11.48-3.66-.12-6.49-.35-8.91-.41l-2-2C43.58,61.5,41.22,61.67,39.86,61.79Zm4.37-37.17c-2.84-1.28-6.5-1.57-10.81-1.75-.06,1.11-.12,1.81-.12,2.45s.06,1.34.12,2.21c1.66.18,6.14.76,7.74,1.64,1.24.69,1.06,7.51,1.3,10.54-3.19.52-8.57,2.33-10,4.89a10.05,10.05,0,0,0-1.07,4.61c0,2.27.71,4.6,2.37,5.71a7.1,7.1,0,0,0,2.77.58A17.74,17.74,0,0,0,42.46,54l.29,2.68c.65.06,1.3.06,1.89.06,1.6,0,3-.11,4.19-.11-.94-10.2-1.06-26.4-2-29A8.47,8.47,0,0,0,44.23,24.62ZM42.52,49.21a10.49,10.49,0,0,1-3.43,1.4,4.69,4.69,0,0,1-1.12.17c-1.36,0-1.77-.93-1.77-2.68a2.92,2.92,0,0,1,1.95-2.85A11.07,11.07,0,0,1,42.52,44C42.46,46.24,42.58,48.1,42.52,49.21Z" transform="translate(-1.83)"/><path class="cls-1" d="M60,11.34c1.66-.23,4.73-.76,6.56-.93a52.19,52.19,0,0,1,6,4.25c-.11,3.9-.47,8-.53,11.71a35.48,35.48,0,0,1,2.72-4.2c2,.53,4.6,1.64,7,2.34,1.18.81,2.06,1.68,4.13,3.37C83.5,32.08,81.61,35.52,80,39c2.19,5.19,4.26,9.85,7.86,19.11-2.19,1.52-4.08,3.21-5.79,4.2a40.59,40.59,0,0,1-5.9-4.72c-1.66-2.92-3.19-6.18-4.37-8.27,0,3.2-.12,8.85-.36,11.76-1.24,0-2.36.18-4.25.18-.77,0-1.59-.06-2.66-.12L60.82,56.2Zm1.19.93L62,55.38h5.38c-.18-3-.24-6.76-.12-9.55a41.76,41.76,0,0,1,2.54-4.26c2,4.49,4.72,9.15,7.26,14.45,1.89-1,3-1.63,4.43-2.39-2.66-6.11-5.61-11.94-8.09-17.18,1.95-3.26,3.48-5.65,5.61-9.79-1.42-1.05-2.89-2.1-3.9-2.8-3.25,5.31-6.26,9.68-8.27,13.52-.35-9.79-.47-18.82-.88-25.63C64.13,11.92,62.83,12,61.18,12.27Z" transform="translate(-1.83)"/><path class="cls-1" d="M102.27,47.11a6.57,6.57,0,0,0,.48,2.91c.41.06,1.24.29,1.65.35,1.36.58,5.49,1.75,6.56,2.39-.06,2-.48,5.54-.77,8.68-10.51-.23-15.24-4.54-18-7.75s-4-10.89-4-15.61c0-1.57-.12-3.38-.12-5.3,0-4.37.65-8.86,4.79-10a17.11,17.11,0,0,1,4.66-.53c.59,0,1.24,0,2,.06,4,.35,10.57,3.61,11.28,7.57a23.05,23.05,0,0,1,.29,4.14c0,3-.29,6.76-.59,11.59A72.27,72.27,0,0,1,102.27,47.11Zm1.54-14.56c0-3-.29-5.66-1.48-7.29s-3-1.92-4.84-1.92a21.12,21.12,0,0,0-4.6.58c-3.13,1-3.72,4.72-3.72,8.57,0,1.86.11,3.78.17,5.41.12,5.42,1,12.59,4.14,15.38,2.3,2.1,4.07,3.38,10.21,3.73l-.23-5.59c-3.13-.41-5.32-1.11-7.33-3-1.77-1.63-1.65-5.88-1.65-6.64,3-.35,6.44-.82,9.15-1.11C103.63,37.79,103.81,35.05,103.81,32.55Zm-4.43,4c-1.65-.05-4,.24-5.08.18V34.23c0-3.26.24-5.88,2.13-6.23a1.6,1.6,0,0,1,.53-.06,2,2,0,0,1,2.13,1.87A33.35,33.35,0,0,1,99.38,36.56Z" transform="translate(-1.83)"/><path class="cls-1" d="M125.13,60.63c-2.31-.06-5.32-3-7.38-7.11-1.72-3.44-2.84-11.13-2.84-15.62,0-2.33.18-8.38,3.31-11.41a8.59,8.59,0,0,1,7.56-2,134.27,134.27,0,0,1-.06-13.87,17.73,17.73,0,0,1,2.95-.23c1.71,0,3.37.17,5,.17a23.9,23.9,0,0,1,6.2,3c-.65,14.92-1.48,32.92-2.13,48.07L131,61.21l-1.77-2.62C128.38,59.93,127.43,60.68,125.13,60.63Zm1.71-48.94c.12,4.08.06,8.68.12,14.5a7.55,7.55,0,0,0-3.31-.81,6,6,0,0,0-3.78,1.34c-3.6,2.15-3.72,7.63-3.72,10,0,6.23.41,11.07,2.42,16,.59,1.4,2.72,2,4.79,2a12.17,12.17,0,0,0,1.53-.12,5.15,5.15,0,0,0,2.89-1.57L128,56.2l4.43.06c-.12-12.7-.24-25.75-.24-38.51v-6Zm.3,36a3,3,0,0,1-2.31,1.11,2.7,2.7,0,0,1-2.66-1.87,48.8,48.8,0,0,1-1.06-10.19,16.77,16.77,0,0,1,.3-3.73,2.94,2.94,0,0,1,3-2.33,3,3,0,0,1,2.42,1.17C126.78,37.15,126.9,41.57,127.14,47.69Z" transform="translate(-1.83)"/><path class="cls-1" d="M67.67,111.34c-.29-2.91-.59-14.86-.82-17.13s-.36-23.42-.71-28.66L73,65.37l7.08,3.27.12,10.42a4.22,4.22,0,0,1,2.19.24c3.54,2.1,8.2,5.18,8.32,8.91.06,1.52.24,3.38.24,6.93,0,4.61-.36,15.79-1.48,17.71a8.43,8.43,0,0,1-6.38,3.5,9.77,9.77,0,0,1-5.61-2.74v2.51l-5.84.58C70.57,115.24,68.26,112.39,67.67,111.34Zm-.29-44.8c.53,15,.71,31.87,1.3,44,1.71,0,2.71.06,3.78.06a5.66,5.66,0,0,0,1.06-.06,13.48,13.48,0,0,0,0-3.14,12.38,12.38,0,0,0,2.54,1.22,6.64,6.64,0,0,0,2.18.35,5.52,5.52,0,0,0,4.14-1.69c1.24-3.44,1.35-8.1,1.35-12.41V88.79A14.71,14.71,0,0,0,82,80.93a4.31,4.31,0,0,0-3-1.05,14.52,14.52,0,0,0-2.18.23,12.12,12.12,0,0,0-4,1.17c-.3-2.62-.12-8.45-.53-14.86C70.74,66.48,69.09,66.48,67.38,66.54ZM78.66,93.16c0,3.79-.3,7.4-.3,8a1.79,1.79,0,0,1-2,1.93,4.12,4.12,0,0,1-2.71-1c-.54-4.14-.12-8.92-.48-15.09a4.64,4.64,0,0,1,3.31-1.87,1.48,1.48,0,0,1,1.53,1.23A28.52,28.52,0,0,1,78.66,93.16Z" transform="translate(-1.83)"/><path class="cls-1" d="M100.8,103.18c-1.36-3.61-3.31-7.74-4.78-12.29-1-3-2.78-7.46-3.9-10.89,1.89-.7,4.66-1.4,6.91-2a25.06,25.06,0,0,1,5.25.81l2.07,6.82c.24-.87,1.59-5.24,2.19-7.92,1.41.35,5.72,1.22,7.67,1.74a34.32,34.32,0,0,1,3.19,3.73c-2.48,13.64-6.32,30.47-8.44,44.1-3.07-.29-8.68-.69-11-1.22-.53-.76-1.65-3-2.65-4.83C98.2,116.82,100.45,106.74,100.8,103.18Zm1.42-.23c-1,4.54-2.78,13.22-3.61,17.71,1.78.64,3.13.64,4.55,1.11,3.43-13,8-28.2,11.34-41.31a51.32,51.32,0,0,0-5-1.34c-1.54,4.9-3.13,11.3-4.78,16.61-2.48-6.41-4.26-10.78-6-16.37a35,35,0,0,0-4.9,1.51C96.19,88.09,99.68,96.19,102.22,103Z" transform="translate(-1.83)"/><path class="cls-5" d="M52.8,14.85c-1.12,0-1.57-.8-1.79-1.77a13.23,13.23,0,0,1,.26-5.15c1.17,1.66,2.56,4.57,2.23,6.48-.07.43-.3.46-.7.44ZM58.4,4.3h0a2.11,2.11,0,0,1-1.9,1.49A12.26,12.26,0,0,1,53,5.88,13.31,13.31,0,0,1,58.4,4.3ZM54.67,16.4c1.44-1.28,1-3.57.49-5.18a15.39,15.39,0,0,0-1.24-3.05A11,11,0,0,0,58,7.73c1.69-.56,3.82-3.22,2.36-5-1.15-1.37-3.54-.65-5-.23a25.75,25.75,0,0,0-3.76,1.37,19.32,19.32,0,0,1-3-3.48c-.54-.8-2-.45-1.72.62a9.27,9.27,0,0,0,2.44,3.88c-1.31.43-2.72.33-4,.81-1,.34-.6,1.65.17,1.93a6.29,6.29,0,0,0,4.06-.24,10.76,10.76,0,0,0-.34,7.05c.71,1.91,3.69,3.52,5.51,1.91Z" transform="translate(-1.83)"/><path class="cls-6" d="M71.87,183.81a1.86,1.86,0,0,0-1.65-.63A1.38,1.38,0,0,0,69,184.65a1.4,1.4,0,0,0,1.49,1.25,1.66,1.66,0,0,0,1.37-.56,1.28,1.28,0,0,0,.06-1.53Z" transform="translate(-1.83)"/><path class="cls-6" d="M196.26,25.1l-.17.11a2.3,2.3,0,0,0-.14,3.65l.17.1a2.6,2.6,0,0,0,2.42.42,2.45,2.45,0,0,0,1.58-1.85,2.49,2.49,0,0,0-3.86-2.43Z" transform="translate(-1.83)"/><path class="cls-6" d="M312,157.29c-1.87,0-1.62,2.84.23,2.84s1.61-2.84-.23-2.84Z" transform="translate(-1.83)"/><path class="cls-6" d="M25.31,14.62a1.56,1.56,0,0,0-1.52.62,1.11,1.11,0,0,0-.46.71,1.2,1.2,0,0,0,.36,1l0,.08c.83,1.37,3,.44,2.88-1a1.6,1.6,0,0,0-1.3-1.42Z" transform="translate(-1.83)"/><path class="cls-6" d="M163.18,119.11c-2.8,0-2.42,4.25.34,4.25s2.42-4.25-.34-4.25Z" transform="translate(-1.83)"/><path class="cls-6" d="M95.67,10.81c-2.45,0-2.12,3.72.3,3.72s2.12-3.72-.3-3.72Z" transform="translate(-1.83)"/><path class="cls-6" d="M18.47,81.8a1.79,1.79,0,0,0-2,2.35l.07.19a1.74,1.74,0,0,0,3.17.14l.07-.18a1.79,1.79,0,0,0-1.3-2.5Z" transform="translate(-1.83)"/><path class="cls-3" d="M45,83.06a2.29,2.29,0,0,0-2.12,2.45,2.34,2.34,0,0,0,2.48,2.08,2.3,2.3,0,0,0,2.12-2.45A2.34,2.34,0,0,0,45,83.06Z" transform="translate(-1.83)"/><path class="cls-3" d="M152.52,25a1.22,1.22,0,0,0-.49-.87,1.48,1.48,0,1,0-.09,2s0,0,0,0,.07-.06.1-.11l0,.05a1.27,1.27,0,0,0,.48-1.08Z" transform="translate(-1.83)"/><path class="cls-3" d="M177.31,143.38a2.61,2.61,0,0,0-1.23-.9,2.42,2.42,0,0,0-1.25-.25l-.62.05a2.37,2.37,0,0,0-2.13,1.9,2.34,2.34,0,0,0,1.9,2.7l.61,0a3.1,3.1,0,0,0,1.56-.26,2.17,2.17,0,0,0,1.06-.73,2.09,2.09,0,0,0,.1-2.55Z" transform="translate(-1.83)"/><path class="cls-3" d="M325.92,125.58a2.16,2.16,0,0,0-2,2.3,2.19,2.19,0,0,0,2.33,2,2.15,2.15,0,0,0,2-2.29,2.19,2.19,0,0,0-2.33-2Z" transform="translate(-1.83)"/><path class="cls-3" d="M204.6,114a2.06,2.06,0,0,0-1.65-1.8,2,2,0,0,0-2.2,1.17,1.93,1.93,0,0,0-.35,1.28,2.08,2.08,0,0,0,2.21,1.85,2.11,2.11,0,0,0,2-2.5Z" transform="translate(-1.83)"/><path class="cls-3" d="M61.33,138.27c-.63-.07-1.58-.45-1.53-1.21.15-2.23,3-2.65,5-2.65,0,2.06-1.17,4.12-3.5,3.86Zm14.37-4.65a20.91,20.91,0,0,0-8.3-2.51c-1.9-4.19-7.35-6.52-11.83-6.52a1,1,0,0,0-.35,1.91c3,1.15,6.14,2.24,8.26,4.66a9.1,9.1,0,0,0-5.6,2.54c-2.89,3.1-1,7,2.84,7.85,4.49,1,7.16-2.87,7.37-6.72,2.39.6,4.8,1.63,7.14,1.39a1.37,1.37,0,0,0,.47-2.6Z" transform="translate(-1.83)"/><path class="cls-7" d="M191.13,42.78c-.76.4-3.21.16-1-1.78a4.23,4.23,0,0,1,2.37-.65l.46,0a3.37,3.37,0,0,1-1.79,2.45Zm4.56-3.38a4.35,4.35,0,0,0-.81-.39c-.64-3.83-5.75-6.72-9.28-4.61a.67.67,0,0,0,.44,1.2c2.52-.36,4.59.11,6.23,2.18a3.07,3.07,0,0,1,.46.8c-2.84-.13-6,1.2-5,4.36,1.18,4,6,1.15,7-1.47a3.28,3.28,0,0,0,.19-.68c1.63,1,2,3.23,1.32,5.39-.91,2.8-5.23,10,.36,10.83a.81.81,0,0,0,.49-1.53c-3-1.62.08-6.4.76-8.8.74-2.65.45-5.64-2.08-7.28Z" transform="translate(-1.83)"/><path class="cls-8" d="M9.6,78.35A1.8,1.8,0,0,1,8.25,80.5a2.33,2.33,0,0,1-1.16.07,3.58,3.58,0,0,1-.18-.85C6.82,78.18,9,76,9.6,78.35ZM8,82.27a6.61,6.61,0,0,0,1-.21c3.61-1.1,2.71-7.76-1.09-6.5a4.49,4.49,0,0,0-2.74,3.65c-.13-.17-.24-.35-.35-.52-1.23-2-1.42-4.77-1.31-7.08a.63.63,0,0,0-1.26-.08c-.46,3,.36,8.66,3.4,10.3A13.84,13.84,0,0,0,7.85,85c1.68,2,10,7.92,5.92,10.39-1,.63-.25,2.31.86,1.71C21.38,93.45,12,86.62,9.24,83.73A14,14,0,0,1,8,82.27Z" transform="translate(-1.83)"/><path class="cls-5" d="M316.77,147.1c.05-.36.41-.68.64-.93l.56-.53a4.41,4.41,0,0,1-.49,1.09,3.85,3.85,0,0,1-.69.82l-.07,0c0-.17,0-.34,0-.5Zm6.51-2.79c.26,1.36-1.87.64-3,.08l.12-.44c1.13-.3,2.66-.64,2.84.36Zm-5,3.92a5.37,5.37,0,0,0,1.33-2.88c1.59,1,4.46,1.62,4.89-.66.38-2-1.9-2.48-3.73-2.24a13.29,13.29,0,0,0,.14-2.5c0-.65-.88-.66-1.15-.18a6.74,6.74,0,0,0-.67,2.66l-.35-.33a5.31,5.31,0,0,0-2.23-1.39c-.38-.05-.85.28-.75.7.15.71.64,1,1.22,1.41a8,8,0,0,1,1.19,1,6.72,6.72,0,0,0-2.49,2,2.69,2.69,0,0,0,0,3.35c.87.79,2.05-.23,2.6-.87Z" transform="translate(-1.83)"/><path class="cls-9" d="M318.78,129.88a16.49,16.49,0,0,0-1.76-9.72c-2.64-4.55-6.51-8.32-10.16-12.1-10-10.33-26.75-14.18-40.46-17.07C257,89,247.57,87.18,238,86.62c-8.35-.49-18.64-.39-25.35,5.31a14.6,14.6,0,0,0-4.8,10.89s0,.06,0,.1a.55.55,0,0,0-.05.52c2.18,6,3.36,11.76,7.51,16.85,4.3,5.26,10.46,8.7,16.43,11.77,8.85,4.56,18.8,7.33,28.55,9.27,18.65,3.69,43.25,4.78,57.79-9.63.25-.26.93-1.63.72-1.82Z" transform="translate(-1.83)"/><path class="cls-10" d="M318.78,129.88a.53.53,0,0,0-.69,0,8.63,8.63,0,0,1-2.09,1.28,1.21,1.21,0,0,1-1.74-.49,4.07,4.07,0,0,0-.24-.59l0-.13a.53.53,0,0,0-.23-.32l0,0-.06,0a.62.62,0,0,0-.72.27.89.89,0,0,0-.08.17v0a.59.59,0,0,0,0,.35,3.88,3.88,0,0,0,.32.86,2,2,0,0,1-3.93.66c-.2-.68-1.23-.37-1.19.29.21,3.12-4.3,2.76-5.41.59a.66.66,0,0,0-1.1-.11.64.64,0,0,0-.36,1.09c1.35,1.25-1,1.7-1.84,1.75a3.66,3.66,0,0,1-3.38-2c-.33-.62-1.35-.05-1.07.58,1.1,2.48-3.33,1.22-3.71-1.08a.64.64,0,0,0-1-.41.51.51,0,0,0-.34.23c-1.29,1.91-6.84,4.2-5.81,0,.16-.68-.89-1-1.18-.35-1,2.23-4.21,3.54-4.76.17a.66.66,0,0,0-1.16-.26.51.51,0,0,0-.45.24c-.42.61-.85,1.21-1.31,1.8-2.31,2.93-5.42,0-5.29-2.81a.63.63,0,0,0-1.18-.35c-2.43,4.52-6.52,2.53-7.8-1.57a1.39,1.39,0,0,0-1.34-.37c-.88.67-1.5,1.6-2.31,2.34-3.06,2.84-4.51-1.94-4.46-4,0-.67-.92-.67-1.18-.19-2.31,4.22-4.53.45-5-2.39a.52.52,0,0,0-.16-.33h0l-.08-.08a.49.49,0,0,0-.71,0s0,0,0,0a.6.6,0,0,0-.12.11c-.72.66-1.3,1.45-2.05,2.08-2,1.69-2.78-1.28-2.92-2.18a9.42,9.42,0,0,1,0-2.43.62.62,0,0,0-1.08-.48c-.88,1-2.09,2.16-3.57,1.69s-1.21-2.66-1.09-3.68a.6.6,0,0,0-.12-.45s0,0,0,0c.37-.7-.75-1.2-1.12-.51-.58,1.1-1.88,3.13-3.21,1.67-1-1-.85-2.8-.46-4a.62.62,0,0,0-1.13-.51c-.51.87-2.68,3.88-3.64,1.62a5.21,5.21,0,0,1,0-3.22.57.57,0,0,0,.2-.83v0c.19-.76-1-1-1.22-.2l-.06.27c-.79.51-1.43,1.35-2.37,1.55s-1.34-1.3-1.39-1.94.12-1.41.14-2.12a.57.57,0,0,0,0-.12v-.07a.5.5,0,0,0-.47-.52.6.6,0,0,0-.51.08c-.73.5-2.68,1.91-3.37.61a4.11,4.11,0,0,1,.19-3l.11-.07c.51-.3.21-1-.25-1.1l-.21,0a.59.59,0,0,0-.66.34.14.14,0,0,1,0,.06c-.89.52-2.37,1.28-2.9.23s0-2.43.3-3.39c.18-.61-.57-.84-1-.53a.56.56,0,0,0-.35.19c-.43.47-1.42,1.58-2.07.83a1.93,1.93,0,0,1-.41-.85c0-.46,0-.92,0-1.39a.51.51,0,0,0-.18-.41c-.17-.59-1.2-.43-1.2.29a7.58,7.58,0,0,0,.17,1.67c.09,8.91,5.3,39.52,6.11,46.1.68,5.49,2.32,10.42,6.84,13.91,5,3.85,11.61,6.39,17.59,8.19,34.43,10.4,37.87,9,47.43-1.79,13.45-15.21,25.1-29.63,33.26-39.47a.47.47,0,0,0,.13-.24.21.21,0,0,0,0-.06.37.37,0,0,0-.28-.6Z" transform="translate(-1.83)"/><path class="cls-11" d="M244.26,151.35c.54-8.67,1.22-17.34,2.42-26l-.06-.29a.52.52,0,0,0-.16-.33h0l-.08-.08a.49.49,0,0,0-.71,0s0,0,0,0a.28.28,0,0,0-.1.09c-1.23,8.75-1.91,17.54-2.46,26.35-.46,7.25-1.27,14.56-1.69,21.84l1.2.35c.41-7.32,1.25-14.68,1.7-22Z" transform="translate(-1.83)"/><path class="cls-11" d="M240.69,150c.07-4.61.26-9.18.13-13.79-.09-3.45-.16-6.91,0-10.35a6.18,6.18,0,0,1-.31-1.16,9.42,9.42,0,0,1,0-2.43.59.59,0,0,0-.63-.68c-1.11,9-.22,18.3-.46,27.38-.12,4.64,0,9.28,0,13.92,0,3.16-.1,6.31-.21,9.46l1.14.34c.09-7.56.16-15.13.27-22.69Z" transform="translate(-1.83)"/><path class="cls-11" d="M237.09,164.75c-.21-4.62-.26-9.25-.29-13.87-.05-9.11,0-18.22-.55-27.31a1.94,1.94,0,0,1-.33-.07,1.39,1.39,0,0,1-.79-.63.53.53,0,0,0-.13.4c.58,9.24.53,18.49.57,27.74,0,4.62.1,9.24.29,13.87.09,2.19.3,4.38.48,6.58l1.27.4c-.19-2.37-.41-4.74-.52-7.11Z" transform="translate(-1.83)"/><path class="cls-11" d="M228.56,147.8c-1.21-9.79-2.25-19.61-2-29.49a.89.89,0,0,1-1.16-.39.55.55,0,0,0-.06.26,195.78,195.78,0,0,0,1.89,28.61c.89,7.34,1.47,14.76,2.32,22.12l1.32.56c-.84-7.21-1.38-14.47-2.27-21.67Z" transform="translate(-1.83)"/><path class="cls-11" d="M231.33,121a1.36,1.36,0,0,1-.93-.5,2,2,0,0,1-.34-.49.58.58,0,0,0,0,.3c2,16.65,2.24,33.37,3.17,50.08l1.27.44c-1-16.62-1.21-33.26-3.13-49.83Z" transform="translate(-1.83)"/><path class="cls-11" d="M218,134.79c-.86-5.09-1.67-10.18-2.23-15.32a65.75,65.75,0,0,0-2-11.58c-.57.14-1.1.08-1.37-.46a2.47,2.47,0,0,1-.1-.29.58.58,0,0,0,0,.26,63.29,63.29,0,0,1,2.34,13.16c.53,4.82,1.33,9.59,2.13,14.36,1.63,9.74,3.36,19.45,4.29,29.27.44.33.88.65,1.33.95-.9-10.19-2.69-20.26-4.39-30.35Z" transform="translate(-1.83)"/><path class="cls-11" d="M219.2,162.6c-1.53-8.67-3.36-17.29-4.74-26-1.7-10.66-3.1-21.37-3.92-32.13-.41.3-.87.46-1.23.06.78,10.4,2.13,20.73,3.74,31,1.31,8.46,3.07,16.84,4.6,25.27a15.79,15.79,0,0,0,1.55,1.75Z" transform="translate(-1.83)"/><path class="cls-11" d="M222.63,114.69a2.69,2.69,0,0,1-.89.41.64.64,0,0,1-.31,0c1,17.53,3.74,34.9,5.06,52.4.42.22.85.42,1.28.62-1.3-17.84-4.15-35.55-5.14-53.42Z" transform="translate(-1.83)"/><path class="cls-11" d="M222.36,141.53c-1.37-10.07-2.68-20.14-4.64-30.11a1.42,1.42,0,0,1-1.26,0c2,10,3.3,20.15,4.67,30.26,1.11,8.23,2.34,16.4,3.16,24.64.43.25.87.49,1.32.73-.81-8.53-2.1-17-3.25-25.49Z" transform="translate(-1.83)"/><path class="cls-11" d="M295.14,135.44a.51.51,0,0,0-.1-.66c0,.62-.58.78-1.3.62-4.9,8.23-24,30.92-32.7,42.73.52.1,1,.2,1.53.28,8.79-11.45,28.58-35.93,32.57-43Z" transform="translate(-1.83)"/><path class="cls-11" d="M249,153.9c1.29-8.81,2.4-17.64,3.78-26.43-.16-.45-.92-.4-1.15,0,0,.09-.1.15-.14.23-1.35,8.64-2.45,17.32-3.71,26-1,6.73-2.45,13.4-3.64,20.1l1.2.34c1.18-6.75,2.66-13.46,3.66-20.24Z" transform="translate(-1.83)"/><path class="cls-11" d="M308.49,133.56a.61.61,0,0,0-.47-1,2,2,0,0,1-1.9,1.87c-7.73,9-28.5,32.17-38.37,44.62l1.54.06c10.69-13.32,32.89-38,39.2-45.57Z" transform="translate(-1.83)"/><path class="cls-11" d="M290,133.68a.64.64,0,0,0-.12-.85l0,0a5.74,5.74,0,0,1-1.81,1.51c-9.84,14.54-20.34,28.47-29.94,43.15l1.28.27c9.83-15,20.6-29.2,30.61-44.1Z" transform="translate(-1.83)"/><path class="cls-11" d="M306.23,142.69c2.71-3.12,6.61-6.75,7.12-11.06a.58.58,0,0,0-.27-.58c0,.07,0,.14.07.2a1.92,1.92,0,0,1-1.51,2.11c-1.33,3.65-4.91,6.85-7.3,9.63-3.49,4.07-21.15,23.48-31.71,36a15.39,15.39,0,0,0,1.91-.37c10.9-12.84,28.2-31.9,31.69-35.9Z" transform="translate(-1.83)"/><path class="cls-11" d="M283.51,157.57c3.54-3.86,6.85-7.91,10.35-11.8,3.06-3.41,6.07-6.86,8-11a.6.6,0,0,0-.58-.84c.79.85-.21,1.31-1.14,1.5-2.05,3.86-5,7.1-7.93,10.36-3.53,3.93-6.88,8-10.47,11.9a228.14,228.14,0,0,0-17.49,21l1.38.18a238.84,238.84,0,0,1,17.88-21.3Z" transform="translate(-1.83)"/><path class="cls-11" d="M258.16,174c2.8-4.94,6.07-9.61,9.21-14.35,5.66-8.51,11.47-17.25,15.63-26.59a.54.54,0,0,0-.1-.62.86.86,0,0,0-.07.1,4.08,4.08,0,0,1-1.87,1.95c-4.2,8.86-9.77,17.2-15.18,25.35-2.57,3.87-5.16,7.71-7.58,11.68-1.05,1.74-2,3.53-3,5.32l1.24.3c.56-1,1.14-2.1,1.72-3.14Z" transform="translate(-1.83)"/><path class="cls-11" d="M268.38,131.82c-4.25,8.16-7.23,17-11.07,25.34-2.75,6-5.08,12.14-7.55,18.24l1.21.32c2.45-6,4.76-12.13,7.47-18.06,3.9-8.53,6.93-17.56,11.32-25.85a.5.5,0,0,0,0-.44l0-.07a.94.94,0,0,0-.09-.12l0,0a.69.69,0,0,0-.52-.16.6.6,0,0,0-.45.33c-.09.18-.2.34-.3.5Z" transform="translate(-1.83)"/><path class="cls-11" d="M247.68,174.82c2-6.66,4.24-13.28,6-20,1.27-4.76,2.68-9.46,4.33-14.11a45.72,45.72,0,0,0,2.77-11.07.54.54,0,0,0-.58-.25.55.55,0,0,0-.64,0c-.38,4.46-1.9,8.64-3.39,12.84s-2.59,8.24-3.71,12.42c-1.8,6.69-4,13.25-6,19.88l1.18.33Z" transform="translate(-1.83)"/><path class="cls-11" d="M262.71,159c5.13-8.84,10.39-17.6,15.18-26.63a.68.68,0,0,0-1,.08.51.51,0,0,0-.45.24c-.19.28-.4.55-.6.83-4.54,8.45-9.45,16.69-14.27,25-3.35,5.76-6.4,11.67-9.53,17.53l1.23.32c3.1-5.8,6.12-11.64,9.42-17.35Z" transform="translate(-1.83)"/><path class="cls-12" d="M315.12,104.61c5.31-1,8.34-4.72,6.65-10.94a19.09,19.09,0,0,0-14.22-13.48c4.64-2.6,7.66-8.22,6.33-13.36-.86-3.3-4.13-5.13-7.09-6.25a31.11,31.11,0,0,0-3.41-1c4-3,4.12-9.9,2.47-15.37-2.9-9.63-8.71-19.43-15-27.28-.38-.47-1.7-.44-1.42.34a.51.51,0,0,0,0,.22c0,6.54-1.64,11.55-7.69,14.79-4.85,2.6-10.49,3.55-15.73,5.15-9.74,3-18.75,9.72-15.15,19.27a16.69,16.69,0,0,0-14.71-1.77c-5.55,1.78-4.89,7.51-4.33,12.25-1.77-.18-3.39.67-4.39,2.87a9.47,9.47,0,0,0,.54,8,7.72,7.72,0,0,0-10.14,3.32c-3.46,6.66.63,14.88,5.14,19.82C226,104.56,234.2,109,239,109.46c3.79.37,6.44-.74,8.39-2.95a15,15,0,0,0,10.29,11.55c4.11,1.29,6.15-.79,7.22-3.71,3,5.53,9.23,9.52,15.22,11,3.52.89,7.6.86,10.57-1.45A6.07,6.07,0,0,0,293,119.6a18.79,18.79,0,0,0,19.81,4.75C322.34,120.9,321.18,110.36,315.12,104.61Z" transform="translate(-1.83)"/><path class="cls-13" d="M264.9,114.35c-5.37-10-17.34-13.1-26.56-18.46-5.23-3-15.34-10.76-13.08-18,.23-.71,1-.72.84,0-.91,6,6.25,12.81,10.84,15.6,4,2.45,8.27,4.43,12.49,6.53,6.68,3.34,13.45,6.78,15.62,13.84C265.26,114.59,265.2,114.89,264.9,114.35Zm28.76,4.8c-4.77-12.88-19.43-15.63-31.22-18.66-6.91-1.78-13.24-5-19.34-8.64-5.71-3.36-12.25-7.29-14.85-13.51-.21-.49-.38-.64-.25-.15,2.59,9.69,14,15.14,22.23,19.35,7,3.55,14.43,5.1,22,7.13,9,2.42,15.92,6.9,20.84,14.75C293.38,120,294,119.94,293.66,119.15Zm22,3c.5-16.17-22.62-23.36-34.87-26.71-9.66-2.65-19.25-4.94-28-10-8.31-4.76-14-11.84-20.75-18.4-.37-.36-.62-.07-.33.46C239.13,81,253,89.65,267.46,94.08c9.35,2.88,19,4.73,28,8.57,7.73,3.29,19.13,10.52,19.54,19.83C315.08,123.35,315.61,123.1,315.64,122.14Zm3.47-4.66c-.17-8.38-9.12-13.63-15.81-17.09C296,96.6,288,94,280.34,91.08c-8.75-3.33-17.59-6.88-25-12.69a31.65,31.65,0,0,1-12.17-24c0-.63-.69-.5-.75.18-1.48,17.66,13.44,27.92,28.06,34.3,7.95,3.48,16.26,6.06,24.37,9.19,8.32,3.21,23.53,9.81,23.77,20.08C318.64,119,319.13,118.35,319.11,117.48Zm-4-12.87c-4.15-6.28-12.67-9.44-19.5-12-5.77-2.14-11.51-4.28-17.1-6.85-6.51-3-13.29-6.45-18.42-11.53-5.4-5.34-7.3-9.78-9.54-16.91-.23-.76.09-.84.42-.3,1.09,1.76,2,2.38,2.86,4.25C250.13,38.81,294,41.55,289.57,17.77a.22.22,0,0,0,0-.08l-.05-.09a.43.43,0,0,1,0-.26l-.22-.38c-.44-.77.81-1.12,1.19-.5,5.62,9.2,12.25,21.09,10.48,32.25C299.29,59,290.34,63.66,280.87,65.52l1,0c7.46.14,16.13-.7,21.51-6,.46-.46.6-.45.45.19-1.42,6-13.09,7.29-18,7.61-9.56.63-18.86-1-28.43.08h0a42,42,0,0,0,9.36,9.21c.47.34,1,.65,1.44,1,5.62-3.9,15.61-2.36,22-2.59,4.95-.17,10.39-.29,15.08-2,4.31-1.61,5.13-3.78,7.23-7.38.41-.72.67-.23.78.41,1.46,8-11.67,10.07-16.77,10.44s-10,.33-15,.45c-4,.09-8.41-.1-12.21,1.41,2.09,1.33,4.25,2.54,6.45,3.68,4.48-1.84,9.42-2,14.22-1.63a62.08,62.08,0,0,0,17.22-.46c.79-.14,1.08.55.18,1-9.46,4.81-20.26-1.38-30.22,1.8,3.47,1.72,7,3.25,10.61,4.71,9.42,3.84,22.83,6.65,27.55,16.68C315.55,104.65,315.38,105,315.12,104.61ZM286.36,40.93c-6.07,6.53-18.31,13.6-18.93,23.31,2.24.12,4.5.39,6.72.65,6.39-1.4,13.63-1.81,18.84-6.13a16.55,16.55,0,0,0,6-13.68c-.26-7.15-2.59-14-5.7-20.44C293.9,30.45,290.79,36.16,286.36,40.93ZM256.48,65.7a22,22,0,0,1,9.21-1.51c-.24-8,8.86-14.42,14-19.33,6.36-6,13-12.91,11.93-21.19-1.15,7.76-10.93,13.7-17.21,16.91C263.83,46,252.22,51.49,256.36,65.37a.43.43,0,0,1-.05.42A.91.91,0,0,1,256.48,65.7Zm-9,40.76c-.27-4.84-7.19-6.13-10.9-7.25-8.19-2.48-20.85-11.77-13.74-21.31.47-.63-.32-.47-.77,0-5.67,6.42-2,13.37,3.91,18.29a24.78,24.78,0,0,0,8,4.26c3.92,1.29,11.18,1.83,13.1,6.06C247.26,106.93,247.5,107,247.47,106.46Z" transform="translate(-1.83)"/><path class="cls-14" d="M287.91,45.17c-3,.86-6.88,2.38-10,1.53-.76-.21-1.16-1.17-.33-1.57a35,35,0,0,1,5.07-1.66,19.47,19.47,0,0,1,4.72-.94C289.08,42.45,289.67,44.68,287.91,45.17Zm17.78-4.46c-.84,1.06-1.64,2.16-2.42,3.26s-2,2.35-2.18,3.71A1.36,1.36,0,0,0,303,49c2.4-1.36,3.65-4.74,5.16-6.95C309.09,40.7,306.58,39.59,305.69,40.71ZM320,88.11c-.57-1.74-1.25-3.42-1.93-5.12-.44-1.07-3-1.36-2.76.13s.5,2.95.88,4.4c.42,1.6.6,3.65,1.72,4.91.66.73,2.58,1.25,2.92-.13S320.47,89.48,320,88.11Zm-45.8-9a44.12,44.12,0,0,0-4.4,3.44c-1.34,1.14-3.14,2-3.72,3.71-.33,1,1,1.48,1.71,1.44,2-.12,3.36-1.51,4.73-2.82a17.23,17.23,0,0,0,3.54-4.52C276.67,79.28,275.08,78.56,274.23,79.12Zm25.25,36.69c-.27-1.68-1.88-3-2.88-4.37a16.36,16.36,0,0,0-4.27-4.31c-.59-.36-1.42,0-1.26.74a13.81,13.81,0,0,0,2.51,4.82c1,1.41,2.05,3.35,3.74,4C298,117,299.67,117,299.48,115.81Zm-36-61.36c-.24-1.74-1.6-2.57-3-3.41-1.69-1-3.53-1.79-5.24-2.79-.77-.45-2,.17-1.42,1.1a11.23,11.23,0,0,0,3.43,3.29c1.53,1,2.95,2.2,4.72,2.71C262.55,55.53,263.61,55.25,263.5,54.45Z" transform="translate(-1.83)"/><path class="cls-15" d="M281.85,59.9c-1.56-2-2.29-4.42-3.13-6.75-.44-1.19,1.41-1.26,2-.55a55.26,55.26,0,0,1,4.11,6.07C285.94,60.62,282.94,61.3,281.85,59.9Zm2.35-25.38c-.37-1.6-.83-3.15-1.35-4.71-.36-1.08-2.35-1.15-2.43.12a23.63,23.63,0,0,0,.18,4.28c.18,1.47.46,3.17,1.66,4.17.5.43,1.63.61,2-.07C285,37.1,284.48,35.8,284.2,34.52ZM248.55,62.45c-2.5,1.32-4.51,3.37-7,4.75-1.82,1,.16,3,1.73,2.38a19.22,19.22,0,0,0,7.72-5C252.12,63.26,249.66,61.86,248.55,62.45Zm47.51,25c-.68-1.35-1.51-2.58-2.3-3.86-.62-1-2.76-.71-2.34.65s.8,2.52,1.29,3.75a19.35,19.35,0,0,0,1.63,3.73c.73,1.08,2.69.94,2.84-.45A6.81,6.81,0,0,0,296.06,87.49Zm13-15.13a34.17,34.17,0,0,0,.6-4.94c.06-1.39-2.59-1.67-2.71-.16a36.16,36.16,0,0,1-.83,5,8.59,8.59,0,0,0-.3,4.26,1.07,1.07,0,0,0,1.74.3A9.52,9.52,0,0,0,309.05,72.36Z" transform="translate(-1.83)"/><path class="cls-16" d="M296.09,55.23c-.35,1-1.71,1-2.4.37A6.35,6.35,0,0,1,292,51.85a10,10,0,0,1,0-4.05c.17-.89,1.51-.46,1.78.11a32.17,32.17,0,0,1,1.62,3.77C295.79,52.78,296.51,54.07,296.09,55.23Zm-22.8,7.58c0-.79-1.11-1-1.64-.64a14.53,14.53,0,0,0-3.29,3.35c-1,1.24-2.7,2.61-3.09,4.2-.28,1.13,1.27,1.94,2.21,1.48A10.73,10.73,0,0,0,271,67.63C272.08,66.17,273.26,64.68,273.29,62.81Zm36.17,33.44a12.56,12.56,0,0,1-2.09,3.88c-.77.82-2.83.61-2.83-.79a10.38,10.38,0,0,1,1.5-4.45,33.5,33.5,0,0,1,2.67-4.61,1.37,1.37,0,0,1,2.38,1A19.41,19.41,0,0,1,309.46,96.25Z" transform="translate(-1.83)"/><path class="cls-17" d="M293.52,66.3A18.86,18.86,0,0,1,289.59,69a11,11,0,0,1-3.9,1.67c-.71.11-1.95-.62-1.34-1.43A12.4,12.4,0,0,1,288,66.51a16.46,16.46,0,0,1,4.27-2C293.26,64.24,294.37,65.48,293.52,66.3ZM272.58,44.06c-.22-1.42-1.34-2.42-2.21-3.53s-2-2.35-2.89-3.61c-.58-.83-2.74-.64-2.17.61a39.25,39.25,0,0,0,2,3.78,9.35,9.35,0,0,0,3.3,3.56C271.26,45.17,272.75,45.09,272.58,44.06ZM248,92.19c-.7-1.8-2.7-3.32-4-4.7a28,28,0,0,0-4.86-4.44c-.49-.32-1.39,0-1.17.66a20.13,20.13,0,0,0,3.19,5.41c1.3,1.76,3,3.77,5.14,4.43C247.14,93.81,248.41,93.24,248,92.19Zm53.19-61.83a12.2,12.2,0,0,0-3.9,2.32c-1.49,1.11-2.87,2.33-4.27,3.55s.89,2.48,2,1.74c1.44-.92,2.9-1.83,4.3-2.82,1.22-.85,2.81-1.58,3.68-2.81C303.81,31.28,302.24,30.08,301.21,30.36Z" transform="translate(-1.83)"/></svg>